<?xml version="1.0" encoding="UTF-8" standalone="no"?>
<!-- Created with Inkscape (http://www.inkscape.org/) -->

<svg
   version="1.1"
   id="svg1"
   width="512"
   height="512"
   viewBox="0 0 512 512"
   xmlns="http://www.w3.org/2000/svg"
   xmlns:svg="http://www.w3.org/2000/svg">
  <defs
     id="defs1" />
  <g
     id="g1">
    <path
       style="fill:#000000"
       d="M 163.74592,510.9779 C 153.18619,508.31034 143.1066,499.80273 138.29951,489.5 c -2.4142,-5.17418 -2.79951,-7.23872 -2.79951,-15 0,-8.00908 0.34225,-9.71567 3.10847,-15.5 1.70965,-3.575 5.08465,-8.46866 7.5,-10.8748 2.41534,-2.40614 7.31653,-5.78114 10.89153,-7.5 5.79719,-2.78729 7.47312,-3.1252 15.5,-3.1252 8.00908,0 9.71567,0.34225 15.5,3.10847 3.575,1.70965 8.46866,5.08465 10.8748,7.5 2.40614,2.41534 5.7789,7.31653 7.49502,10.89153 2.78102,5.79338 3.12022,7.4784 3.12022,15.5 0,8.0216 -0.3392,9.70662 -3.12022,15.5 -1.71612,3.575 -5.08888,8.47619 -7.49502,10.89153 -2.40614,2.41535 -7.16764,5.71106 -10.58111,7.32381 -4.60631,2.17634 -8.08663,3.03264 -13.5,3.32159 -4.01153,0.21412 -8.98302,-0.0374 -11.04777,-0.55903 z m 15.63806,-15.20022 c 2.47342,-0.73453 5.9229,-3.0292 8.6437,-5.75 9.29188,-9.29189 9.29188,-21.76347 0,-31.05536 C 183.49493,454.43958 178.06188,452 172.5,452 c -5.56188,0 -10.99493,2.43958 -15.52768,6.97232 -9.29115,9.29116 -9.29115,21.75276 0,31.06623 6.48303,6.49859 13.66295,8.33721 22.41166,5.73913 z M 167.45455,479.54545 C 166.10455,478.19545 165,475.925 165,474.5 c 0,-3.33411 4.16589,-7.5 7.5,-7.5 3.33411,0 7.5,4.16589 7.5,7.5 0,3.33411 -4.16589,7.5 -7.5,7.5 -1.425,0 -3.69545,-1.10455 -5.04545,-2.45455 z M 420.74592,510.9779 C 410.18619,508.31034 400.1066,499.80273 395.29951,489.5 c -2.4142,-5.17418 -2.79951,-7.23872 -2.79951,-15 0,-8.00908 0.34225,-9.71567 3.10847,-15.5 1.70965,-3.575 5.08465,-8.46866 7.5,-10.8748 2.41534,-2.40614 7.31653,-5.78114 10.89153,-7.5 5.79719,-2.78729 7.47312,-3.1252 15.5,-3.1252 8.00908,0 9.71567,0.34225 15.5,3.10847 3.575,1.70965 8.46866,5.08465 10.8748,7.5 2.40614,2.41534 5.7789,7.31653 7.49502,10.89153 2.78102,5.79338 3.12022,7.4784 3.12022,15.5 0,8.0216 -0.3392,9.70662 -3.12022,15.5 -1.71612,3.575 -5.08888,8.47619 -7.49502,10.89153 -2.40614,2.41535 -7.16764,5.71106 -10.58111,7.32381 -4.60631,2.17634 -8.08663,3.03264 -13.5,3.32159 -4.01153,0.21412 -8.98302,-0.0374 -11.04777,-0.55903 z m 15.63806,-15.20022 c 2.47342,-0.73453 5.9229,-3.0292 8.6437,-5.75 C 449.56042,485.49493 452,480.06188 452,474.5 c 0,-5.56188 -2.43958,-10.99493 -6.97232,-15.52768 C 440.49493,454.43958 435.06188,452 429.5,452 c -5.56188,0 -10.99493,2.43958 -15.52768,6.97232 C 409.43958,463.50507 407,468.93812 407,474.5 c 0,5.55648 2.44087,10.99622 6.97232,15.53855 6.48303,6.49859 13.66295,8.33721 22.41166,5.73913 z M 424.45455,479.54545 C 423.10455,478.19545 422,475.925 422,474.5 c 0,-1.425 1.10455,-3.69545 2.45455,-5.04545 1.35,-1.35 3.62045,-2.45455 5.04545,-2.45455 1.425,0 3.69545,1.10455 5.04545,2.45455 1.35,1.35 2.45455,3.62045 2.45455,5.04545 0,1.425 -1.10455,3.69545 -2.45455,5.04545 -1.35,1.35 -3.62045,2.45455 -5.04545,2.45455 -1.425,0 -3.69545,-1.10455 -5.04545,-2.45455 z M 115.22726,420.55303 c -14.38082,-3.48256 -28.004989,-14.4267 -34.455017,-27.67732 -1.974658,-4.05664 -4.081227,-9.76036 -4.681265,-12.67493 -3.534379,-17.16758 1.815768,-34.97601 14.238588,-47.39438 5.222486,-5.22061 10.558034,-8.70952 30.989554,-20.26401 C 134.8936,304.86571 146,298.16911 146,297.66105 146,297.153 132.93167,245.67029 116.95927,183.25503 100.066,117.24131 86.933434,67.8334 85.56347,65.136376 82.200513,58.515787 75.520798,52.239764 68,48.634365 l -6.5,-3.116038 -23,-0.531241 C 12.832728,44.394237 12.15176,44.231023 5.741396,37.135516 0.359303,31.178183 -1.2006683,23.877396 1.1184992,15.5 2.5877674,10.192647 10.192647,2.5877674 15.5,1.1184992 20.562204,-0.28290275 56.253597,-0.33922723 65,1.0403834 74.803841,2.5867886 85.680474,6.4980506 94.544003,11.664474 105.03085,17.777105 117.21811,29.967227 123.37276,40.5 c 4.42712,7.576363 8.89187,19.599706 11.60438,31.25 L 136.19948,77 H 321.6452 507.09091 l 2.45454,2.454545 c 1.35,1.35 2.45564,3.2625 2.45698,4.25 0.001,0.9875 -10.3934,42.520455 -23.09941,92.295455 -16.73794,65.56984 -23.96974,92.29056 -26.25243,97 -4.12713,8.51471 -14.09324,18.69689 -22.39032,22.87575 -11.49123,5.78761 -14.51931,6.09319 -60.54165,6.10947 -38.92241,0.0138 -41.81648,0.13453 -42.2942,1.76478 -0.28205,0.9625 -1.89678,4.57166 -3.58829,8.02036 -3.58311,7.30532 -9.85912,13.32838 -17.83613,17.11727 L 310.5,331.5 244,332 l -66.5,0.5 -27,15.29391 c -14.85,8.41165 -27.7875,16.224 -28.75,17.36078 -2.44997,2.89359 -2.17884,6.50738 0.70455,9.39076 l 2.45454,2.45455 168.79546,0.006 c 120.34823,0.004 169.94352,0.3234 172.79545,1.11292 5.30735,1.46927 12.91223,9.07415 14.3815,14.3815 2.50505,9.04885 0.68959,16.20307 -5.74442,22.63708 -2.86829,2.86828 -6.16286,5.05947 -8.63708,5.74442 -2.85852,0.79134 -52.7983,1.08467 -175,1.02788 -135.08065,-0.0628 -172.10756,-0.34769 -176.27274,-1.35635 z M 464.54545,404.54545 C 465.89545,403.19545 467,400.925 467,399.5 c 0,-1.425 -1.10455,-3.69545 -2.45455,-5.04545 L 462.09091,392 l -168.79546,-0.006 c -120.34823,-0.004 -169.94352,-0.3234 -172.79545,-1.11292 -5.30735,-1.46927 -12.91223,-9.07415 -14.3815,-14.3815 -2.29481,-8.28942 -0.76,-15.6773 4.45645,-21.45128 2.35198,-2.60336 12.85964,-9.15151 33.18345,-20.67922 L 173.5,317.5 l 67,-0.5 67,-0.5 4.73769,-2.78494 C 316.38578,311.2767 322,304.98106 322,302.76787 322,302.34554 290.35344,302 251.67431,302 h -70.32568 l -2.10602,-2.25 C 177.61921,298.01562 170.23242,270.45878 147.0088,179.5 122.35249,82.929887 116.1914,60.047126 113.08382,53.5 110.99536,49.1 108.34632,44.375 107.19704,43 l -2.08958,-2.5 -5.145092,5.103266 -5.14509,5.103266 2.981796,5.396734 C 99.439061,59.07147 101.49547,63.75 102.36888,66.5 c 0.87341,2.75 14.84889,56.89585 31.05664,120.32411 22.31717,87.33724 29.25564,115.8843 28.59099,117.63246 -0.4827,1.26959 -2.14638,3.18713 -3.69707,4.2612 -1.55069,1.07407 -13.84444,8.15935 -27.31944,15.74508 -27.5121,15.48788 -33.055392,19.89445 -37.653976,29.93257 -2.399191,5.23714 -2.797856,7.38346 -2.805574,15.10458 -0.0078,7.7524 0.376895,9.83173 2.774783,15 4.790749,10.3257 15.055127,18.96899 25.430687,21.41433 2.0905,0.49269 78.99713,0.92928 173.54953,0.98522 L 462.09091,407 Z M 228.70292,284.75 c -0.28265,-1.2375 -2.22353,-13.6125 -4.31308,-27.5 L 220.59067,232 h -22.36272 c -20.82371,0 -22.32794,0.12044 -21.8573,1.75 0.27799,0.9625 3.2564,12.55 6.6187,25.75 3.3623,13.2 6.3455,24.7875 6.62935,25.75 0.4687,1.58936 2.30987,1.75 20.0571,1.75 h 19.54102 z m 53.96544,-7.5 c -0.33965,-5.3625 -0.87215,-15.825 -1.18334,-23.25 -0.31118,-7.425 -0.80018,-15.4125 -1.08667,-17.75 L 279.87745,232 H 257.93873 C 245.86061,232 236,232.39824 236,232.88605 c 0,0.48732 1.8,12.4636 4,26.61395 2.2,14.15035 4,26.12663 4,26.61395 0,0.48733 8.83933,0.88605 19.64295,0.88605 h 19.64296 z m 54.72531,2.5 c 0.31037,-3.9875 0.80903,-12.65 1.10812,-19.25 0.2991,-6.6 0.81178,-15.7125 1.13929,-20.25 l 0.59547,-8.25 h -22.54602 -22.54602 l 0.43736,5.25 C 296.09041,243.35435 298,280.59983 298,284.41423 V 287 h 19.41468 19.41468 z m 54.01334,4.5 C 392.46368,279.11524 399,235.74318 399,233.86632 399,232.10111 397.80807,232 377,232 c -16.93215,0 -22.00051,0.28795 -22.00221,1.25 -0.005,2.94181 -2.00665,39.88078 -2.51949,46.5 l -0.5617,7.25 h 19.46224 19.46225 z m 35.35309,0.9018 c 9.89502,-3.07968 17.98007,-9.81367 22.57897,-18.8059 0.88721,-1.73476 3.22859,-9.38476 5.20306,-17 1.97448,-7.61525 3.81557,-14.6334 4.0913,-15.5959 0.46666,-1.62891 -1.02425,-1.75 -21.54699,-1.75 -22.04519,0 -22.04841,3.2e-4 -22.565,2.25 -0.28417,1.2375 -2.10247,12.825 -4.04066,25.75 -1.9382,12.925 -3.69714,24.2875 -3.90877,25.25 -0.3391,1.54228 0.48376,1.75 6.93252,1.75 4.30828,0 9.75921,-0.76001 13.25557,-1.8482 z M 218,216.21639 c 0,-0.43099 -1.79687,-12.46849 -3.99305,-26.75 -2.19618,-14.28152 -3.99618,-26.30389 -4,-26.71639 -0.004,-0.4125 -11.73727,-0.75 -26.07434,-0.75 -24.36266,0 -26.0325,0.11444 -25.53388,1.75 0.29343,0.9625 3.05555,11.65 6.13804,23.75 3.08248,12.1 6.04008,23.6875 6.57242,25.75 l 0.9679,3.75 h 22.96145 C 207.66734,217 218,216.64737 218,216.21639 Z M 278.63243,201.25 c -0.37297,-8.6625 -0.96201,-21.0375 -1.30896,-27.5 L 276.69265,162 h -16.21147 c -14.8865,0 -16.42681,-0.16939 -18.84632,-2.07258 C 239.72383,158.42421 239,156.93322 239,154.5 c 0,-2.43322 0.72383,-3.92421 2.63486,-5.42742 2.41414,-1.89896 3.96386,-2.07258 18.5,-2.07258 8.72583,0 15.85297,-0.3375 15.83808,-0.75 -0.408,-11.31038 -2.96559,-53.575988 -3.25981,-53.870205 -0.22577,-0.225767 -13.4326,-0.29108 -29.34852,-0.14514 L 214.42658,92.5 l 9.5152,62.25 9.51521,62.25 h 22.92679 22.92679 z m 62.69104,4 c 0.34695,-6.4625 0.93599,-18.8375 1.30896,-27.5 L 343.31057,162 H 317.65529 292 l -0.006,2.25 c -0.0146,5.63771 2.18178,48.4939 2.58816,50.5 l 0.45578,2.25 h 22.82728 22.82727 z m 60.68348,11 c 0.004,-0.4125 1.80382,-12.43487 4,-26.71639 C 408.20313,175.2521 410,163.2146 410,162.78361 410,162.35263 398.53357,162 384.51905,162 H 359.0381 l -0.45578,2.25 c -0.40638,2.0061 -2.60279,44.86229 -2.58816,50.5 L 356,217 h 23 c 12.65,0 23.00313,-0.3375 23.00695,-0.75 z m 61.38188,-1.5 c 0.34214,-1.2375 3.35137,-12.98343 6.68717,-26.10206 3.3358,-13.11863 6.30649,-24.48113 6.60154,-25.25 C 477.12846,162.22285 473.0828,162 451.29875,162 h -25.91523 l -3.75928,25.25 c -2.06761,13.8875 -4.00268,26.2625 -4.30017,27.5 l -0.54089,2.25 h 22.99178 22.99178 z M 207,145.13368 C 207,143.25682 200.46368,99.884759 199.40701,94.75 L 198.84109,92 h -29.33788 -29.33787 l 6.91733,27.11011 c 3.80453,14.91056 6.91733,27.28556 6.91733,27.5 0,0.21444 11.925,0.38989 26.5,0.38989 25.20063,0 26.5,-0.0915 26.5,-1.86632 z M 344.39835,142.75 c 0.28649,-2.3375 0.77549,-10.325 1.08667,-17.75 0.31119,-7.425 0.84369,-17.8875 1.18334,-23.25 L 347.28591,92 H 317.60125 287.9166 l 0.5617,7.25 c 0.51284,6.61922 2.51428,43.55819 2.51949,46.5 0.002,0.96842 5.9578,1.25 26.44094,1.25 h 26.43872 z m 71.99149,-21 c 2.08955,-13.8875 4.03043,-26.2625 4.31308,-27.5 L 421.21682,92 H 391.60841 362 v 2.585768 c 0,3.814402 -1.90959,41.059882 -2.41813,47.164232 l -0.43736,5.25 h 26.72308 26.72308 z m 71.31045,-2 6.98959,-27.25 -28.99626,-0.265345 c -15.94795,-0.14594 -29.1122,-0.14594 -29.25391,0 C 436.16469,92.51789 428,144.65333 428,146.12622 428,146.6068 439.85991,147 454.35535,147 h 26.35536 z M 89.537592,34.934187 94.5,29.868375 92,27.790873 C 87.328296,23.908682 73.567059,18.008127 65.662032,16.497657 60.418555,15.495748 51.548836,15 38.866577,15 20.072209,15 19.887971,15.02112 17.454545,17.454545 16.104545,18.804545 15,21.075 15,22.5 c 0,1.425 1.104545,3.695455 2.454545,5.045455 C 19.88725,29.978159 20.077074,30 38.787764,30 c 10.38327,0 21.447187,0.515831 24.586481,1.146292 3.139295,0.63046 8.951847,2.828049 12.916782,4.88353 3.964935,2.055481 7.450889,3.78965 7.746565,3.853708 0.295675,0.06406 2.770675,-2.163146 5.5,-4.949343 z"
       id="path1" />
  </g>
</svg>
