<?xml version="1.0" encoding="UTF-8" standalone="no"?>
<!-- Created with Inkscape (http://www.inkscape.org/) -->

<svg
   version="1.1"
   id="svg1"
   width="512"
   height="512"
   viewBox="0 0 512 512"
   xmlns="http://www.w3.org/2000/svg"
   xmlns:svg="http://www.w3.org/2000/svg">
  <defs
     id="defs1" />
  <g
     id="g1">
    <path
       style="fill:#000000"
       d="M 138.5,455.13559 C 132.78953,452.37678 3.6251641,322.84635 1.5347033,317.78212 -0.49299367,312.86994 -0.37191288,308.38642 1.9204025,303.5 3.1956948,300.78152 25.054594,278.28948 70.148441,233.29573 c 36.887259,-36.80538 67.601639,-66.66864 69.166659,-67.25 1.5483,-0.57515 4.9233,-1.03833 7.5,-1.02928 6.40491,0.0225 12.01123,3.35103 15.18206,9.01377 2.49093,4.44852 2.50435,4.61125 2.81959,34.20611 l 0.31675,29.73634 103.76133,0.26366 103.76134,0.26367 3.78076,2.88391 c 2.07942,1.58615 4.6219,4.73615 5.64995,7 1.57249,3.46272 1.87268,6.65563 1.89116,20.11459 l 0.022,15.99851 41.74699,-41.747 41.74699,-41.74699 -41.49699,-41.51076 -41.49699,-41.51077 -0.5,17.41873 -0.5,17.41872 -3.10602,3.84053 c -1.70832,2.11229 -4.63332,4.74053 -6.5,5.84053 -3.31473,1.9533 -5.19197,2 -80.39398,2 -42.35,0 -78.22925,-0.344 -79.73166,-0.76445 -4.24395,-1.18766 -9.46731,-6.38045 -11.33361,-11.26729 -3.24984,-8.50958 0.72776,-18.43214 8.99262,-22.43309 C 215.52472,128.05167 217.29731,128 281.24888,128 l 65.61743,0 0.31684,-29.75 c 0.34557,-32.446307 0.38332,-32.670298 6.47757,-38.436382 5.42649,-5.134267 12.77708,-6.206227 19.83928,-2.893224 5.65976,2.655093 134.83984,132.148486 136.9653,137.297486 2.02769,4.91218 1.90661,9.3957 -0.3857,14.28212 -1.27529,2.71848 -23.13419,25.21052 -68.22804,70.20427 -36.88726,36.80538 -67.60164,66.66864 -69.16666,67.25 -1.5483,0.57515 -4.9233,1.03833 -7.5,1.02928 -6.40491,-0.0225 -12.01123,-3.35103 -15.18206,-9.01377 -2.49093,-4.44852 -2.50435,-4.61125 -2.81959,-34.20611 L 346.8665,274.02733 243.10517,273.76367 139.34383,273.5 l -3.78076,-2.88391 c -2.07942,-1.58615 -4.6219,-4.73615 -5.64995,-7 -1.57249,-3.46272 -1.87268,-6.65563 -1.89116,-20.11459 L 128,227.50299 l -41.746992,41.747 -41.746992,41.74699 41.496992,41.51076 41.496992,41.51077 0.5,-17.41873 0.5,-17.41872 3.10602,-3.84053 c 1.70832,-2.11229 4.63332,-4.74053 6.5,-5.84053 3.31473,-1.9533 5.19197,-2 80.39398,-2 42.35,0 78.22925,0.344 79.73166,0.76445 4.24395,1.18766 9.46731,6.38045 11.33361,11.26729 3.24984,8.50958 -0.72776,18.43214 -8.99262,22.43309 C 296.47531,383.94832 294.70262,384 230.7625,384 h -65.60606 l -0.32822,29.75 c -0.30469,27.617 -0.47161,29.99334 -2.32822,33.14398 -1.1,1.86668 -3.68307,4.7543 -5.74016,6.41691 -2.86025,2.31175 -4.97761,3.1093 -9,3.39005 -3.75003,0.26173 -6.40802,-0.18759 -9.25984,-1.56535 z"
       id="path1" />
  </g>
</svg>
